HIERARCHY
ROOT Hips
{
	OFFSET 0.00000 0.00000 0.00000
	CHANNELS 6 Xposition Yposition Zposition Zrotation Yrotation Xrotation 
	JOINT LHipJoint
	{
		OFFSET 0 0 0
		CHANNELS 3 Zrotation Yrotation Xrotation
		JOINT LeftHip
		{
			OFFSET 1.56857 -1.73443 1.15205
			CHANNELS 3 Zrotation Yrotation Xrotation
			JOINT LeftKnee
			{
				OFFSET 2.39362 -6.57643 0.00000
				CHANNELS 3 Zrotation Yrotation Xrotation
				JOINT LeftAnkle
				{
					OFFSET 2.50952 -6.89485 0.00000
					CHANNELS 3 Zrotation Yrotation Xrotation
					JOINT LeftToe
					{
						OFFSET 0.17171 -0.47178 1.88682
						CHANNELS 3 Zrotation Yrotation Xrotation
						End Site
						{
							OFFSET 0.00000 -0.00000 0.98146
						}
					}
				}
			}
		}
	}
	JOINT RHipJoint
	{
		OFFSET 0 0 0
		CHANNELS 3 Zrotation Yrotation Xrotation
		JOINT RightHip
		{
			OFFSET -1.28153 -1.73443 1.15205
			CHANNELS 3 Zrotation Yrotation Xrotation
			JOINT RightKnee
			{
				OFFSET -2.26861 -6.23296 0.00000
				CHANNELS 3 Zrotation Yrotation Xrotation
				JOINT RightAnkle
				{
					OFFSET -2.54143 -6.98254 0.00000
					CHANNELS 3 Zrotation Yrotation Xrotation
					JOINT RightToe
					{
						OFFSET -0.23309 -0.64041 1.93119
						CHANNELS 3 Zrotation Yrotation Xrotation
						End Site
						{
							OFFSET -0.00000 -0.00000 1.02013
						}
					}
				}
			}
		}
	}
	JOINT lowerback
	{
		OFFSET 0 0 0
		CHANNELS 3 Zrotation Yrotation Xrotation
		JOINT Chest
		{
			OFFSET -0.07096 2.10460 -0.27878
			CHANNELS 3 Zrotation Yrotation Xrotation
			JOINT Chest2
			{
				OFFSET -0.00826 2.13662 -0.08279
				CHANNELS 3 Zrotation Yrotation Xrotation
				JOINT lowerneck
				{
					OFFSET 0 0 0
					CHANNELS 3 Zrotation Yrotation Xrotation
					JOINT Neck
					{
						OFFSET 0.03239 1.77799 0.24435
						CHANNELS 3 Zrotation Yrotation Xrotation
						JOINT Head
						{
							OFFSET 0.01026 1.74194 -0.49664
							CHANNELS 3 Zrotation Yrotation Xrotation
							End Site
							{
								OFFSET 0.00170 1.83057 -0.19653
							}
						}
					}
				}
				JOINT LeftCollar
				{
					OFFSET 0 0 0
					CHANNELS 3 Zrotation Yrotation Xrotation
					JOINT LeftShoulder
					{
						OFFSET 3.19178 1.35907 -0.31412
CHANNELS 3 Zrotation Xrotation Yrotation
						JOINT LeftElbow
						{
OFFSET 0 -4.852470 -0.000000
CHANNELS 3 Zrotation Xrotation Yrotation
							JOINT LeftWrist
							{
OFFSET 0 -3.555840 0.000000
CHANNELS 3 Zrotation Xrotation Yrotation
								JOINT lhand
								{
									OFFSET 0 0 0
CHANNELS 3 Zrotation Xrotation Yrotation
									JOINT LFingers
									{
OFFSET 0 -0.693200 0.000000
CHANNELS 3 Zrotation Xrotation Yrotation
										End Site
										{
OFFSET 0 -0.558880 0.000000
										}
									}
								}
								JOINT LThumb
								{
OFFSET 0 0.000000 0.000000
CHANNELS 3 Zrotation Xrotation Yrotation
									End Site
									{
OFFSET 0 -0.567410 0.567410
									}
								}
							}
						}
					}
				}
				JOINT RightCollar
				{
					OFFSET 0 0 0
					CHANNELS 3 Zrotation Yrotation Xrotation
					JOINT RightShoulder
					{
						OFFSET -3.28999 1.24191 -0.26899
CHANNELS 3 Zrotation Xrotation Yrotation
						JOINT RightElbow
						{
OFFSET 0 -4.644620 0.000000
CHANNELS 3 Zrotation Xrotation Yrotation
							JOINT RightWrist
							{
OFFSET 0 -3.407030 0.000000
CHANNELS 3 Zrotation Xrotation Yrotation
								JOINT rhand
								{
									OFFSET 0 0 0
CHANNELS 3 Zrotation Xrotation Yrotation
									JOINT RFingers
									{
OFFSET 0 -0.619580 0.000000
CHANNELS 3 Zrotation Xrotation Yrotation
										End Site
										{
OFFSET 0 -0.499520 0.000000
										}
									}
								}
								JOINT RThumb
								{
OFFSET 0 0.000000 0.000000
CHANNELS 3 Zrotation Xrotation Yrotation
									End Site
									{
OFFSET 0 -0.507150 0.507150
									}
								}
							}
						}
					}
				}
			}
		}
	}
}
MOTION
Frames: 10
Frame Time: 0.008333333333333333
-29.279200 15.680900 0.252100 -53.492800 89.310600 -46.077000 0.000000 0.000000 0.000000 -19.100600 4.154300 -4.228500 16.550700 19.712300 79.868200 40.151700 -9.024100 170.490600 0.043000 1.338900 3.681900 0.000000 0.000000 0.000000 23.162300 8.958000 -31.012900 -6.971800 -15.308100 48.767500 -2.021800 3.005200 -26.127000 -0.003700 -0.394200 1.083200 -3.154200 1.327400 17.100000 3.382700 1.655200 4.369800 5.044700 0.952500 -5.079700 2.430500 2.800100 -30.552400 -4.506600 3.835200 14.608200 -1.360500 1.369700 9.671900 -0.000000 -0.000000 0.000000 9.198600 12.316200 -60.946300 74.590900 -59.083500 46.696400 26.473200 -13.693300 18.636300 0.000000 0.000000 0.000000 -7.125000 0.000000 0.000000 -1.092400 9.339100 -0.900900 -0.000000 -0.000000 0.000000 -21.256600 12.197700 37.537200 -56.723300 -55.371600 -31.629400 -27.381500 0.968000 29.426300 0.000000 0.000000 0.000000 7.125000 0.000000 -0.000000 4.345200 62.354000 -1.834800
-29.143011 15.676746 0.247324 -49.347789 88.588037 -42.401725 0.000000 0.000000 0.000000 -18.619969 4.799676 -4.751244 16.303519 19.664466 79.132080 40.120308 -8.748438 170.184889 0.051557 1.452404 3.994875 0.000000 0.000000 0.000000 23.803174 8.941085 -29.448176 -6.843944 -15.196089 48.276248 -2.069560 3.661472 -26.331322 -0.016038 -0.666654 1.832827 -2.824957 1.564706 17.630530 3.418370 2.031978 4.464051 4.798315 1.139136 -5.288648 2.494378 2.776718 -30.582971 -4.467372 3.765153 14.534173 -1.368037 1.346940 9.647299 0.000000 0.000000 0.000000 9.102807 12.800935 -60.320027 73.145600 -58.870796 45.461715 26.527303 -13.562508 18.322629 0.000000 0.000000 0.000000 -7.125000 0.000000 0.000000 -1.024890 9.672571 -0.839658 0.000000 0.000000 0.000000 -21.038771 11.321212 37.549986 -56.758672 -55.382421 -31.658504 -27.585075 1.149312 29.325507 0.000000 0.000000 0.000000 7.125000 0.000000 0.000000 4.049165 62.301663 -1.705750
-29.006821 15.672592 0.242548 -45.202778 87.865474 -38.726449 0.000000 0.000000 0.000000 -18.139339 5.445053 -5.273987 16.056338 19.616632 78.395961 40.088916 -8.472775 169.879178 0.060114 1.565907 4.307849 0.000000 0.000000 0.000000 24.444048 8.924170 -27.883452 -6.716087 -15.084078 47.784995 -2.117319 4.317743 -26.535643 -0.028376 -0.939107 2.582453 -2.495715 1.802011 18.161059 3.454041 2.408757 4.558301 4.551930 1.325771 -5.497596 2.558257 2.753335 -30.613542 -4.428145 3.695105 14.460145 -1.375574 1.324179 9.622698 0.000000 0.000000 0.000000 9.007014 13.285670 -59.693755 71.700300 -58.658091 44.227030 26.581405 -13.431717 18.008958 0.000000 0.000000 0.000000 -7.125000 0.000000 0.000000 -0.957380 10.006043 -0.778417 0.000000 0.000000 0.000000 -20.820943 10.444724 37.562771 -56.794044 -55.393241 -31.687607 -27.788651 1.330625 29.224715 0.000000 0.000000 0.000000 7.125000 0.000000 0.000000 3.753130 62.249327 -1.576699
-28.870632 15.668438 0.237772 -41.057767 87.142911 -35.051174 0.000000 0.000000 0.000000 -17.658708 6.090429 -5.796731 15.809158 19.568797 77.659841 40.057524 -8.197113 169.573466 0.068671 1.679411 4.620824 0.000000 0.000000 0.000000 25.084922 8.907255 -26.318728 -6.588231 -14.972066 47.293743 -2.165079 4.974015 -26.739965 -0.040714 -1.211561 3.332080 -2.166472 2.039317 18.691589 3.489711 2.785535 4.652552 4.305546 1.512407 -5.706545 2.622135 2.729953 -30.644113 -4.388917 3.625058 14.386118 -1.383111 1.301419 9.598096 0.000000 0.000000 0.000000 8.911222 13.770405 -59.067482 70.255000 -58.445387 42.992345 26.635508 -13.300925 17.695287 0.000000 0.000000 0.000000 -7.125000 0.000000 0.000000 -0.889869 10.339514 -0.717175 0.000000 0.000000 0.000000 -20.603114 9.568236 37.575557 -56.829416 -55.404062 -31.716711 -27.992226 1.511937 29.123922 0.000000 0.000000 0.000000 7.125000 0.000000 0.000000 3.457095 62.196990 -1.447649
-28.734442 15.664284 0.232996 -36.912757 86.420348 -31.375899 0.000000 0.000000 0.000000 -17.178077 6.735806 -6.319475 15.561977 19.520963 76.923721 40.026132 -7.921450 169.267755 0.077228 1.792915 4.933798 0.000000 0.000000 0.000000 25.725796 8.890341 -24.754005 -6.460374 -14.860055 46.802491 -2.212838 5.630286 -26.944286 -0.053052 -1.484014 4.081707 -1.837229 2.276622 19.222118 3.525382 3.162314 4.746802 4.059161 1.699042 -5.915493 2.686014 2.706571 -30.674684 -4.349690 3.555010 14.312090 -1.390648 1.278658 9.573495 0.000000 0.000000 0.000000 8.815429 14.255140 -58.441210 68.809700 -58.232683 41.757659 26.689611 -13.170133 17.381616 0.000000 0.000000 0.000000 -7.125000 0.000000 0.000000 -0.822359 10.672986 -0.655933 0.000000 0.000000 0.000000 -20.385286 8.691747 37.588343 -56.864788 -55.414882 -31.745814 -28.195801 1.693249 29.023129 0.000000 0.000000 0.000000 7.125000 0.000000 0.000000 3.161060 62.144654 -1.318598
-28.632011 15.651014 0.240383 -41.058791 86.152945 -35.510673 0.000000 0.000000 0.000000 -16.596904 6.403372 -7.609876 15.180642 19.422017 75.771879 39.996909 -7.220243 169.520037 0.061484 1.530816 4.211904 0.000000 0.000000 0.000000 26.317386 8.594905 -24.064452 -6.344827 -14.751773 46.345655 -2.242196 5.780506 -27.111389 -0.049888 -1.438266 3.955602 -1.478567 2.284422 19.541131 3.621427 3.258841 4.670703 3.923677 1.744601 -6.161880 2.689128 2.689940 -30.685756 -4.258229 3.508459 14.234870 -1.365963 1.269815 9.543386 0.000000 0.000000 0.000000 8.770334 14.745554 -57.775597 67.635243 -58.002819 40.763789 26.892858 -13.047141 16.883190 0.000000 0.000000 0.000000 -7.125000 0.000000 0.000000 -0.638927 11.190115 -0.508724 0.000000 0.000000 0.000000 -20.171552 7.740382 37.624990 -56.923023 -55.432576 -31.793783 -28.373004 1.964063 28.965137 0.000000 0.000000 0.000000 7.125000 0.000000 0.000000 2.918941 62.129877 -1.216725
-28.530273 15.637556 0.248019 -45.375189 85.894893 -39.805928 0.000000 0.000000 0.000000 -16.013665 6.050847 -8.916052 14.796550 19.322020 74.611495 39.967731 -6.510291 169.783784 0.045241 1.260999 3.468744 0.000000 0.000000 0.000000 26.907964 8.293745 -23.392882 -6.229532 -14.643568 45.889526 -2.271175 5.920327 -27.277726 -0.046405 -1.385979 3.811502 -1.119300 2.287507 19.855797 3.718712 3.349609 4.591104 3.790473 1.787262 -6.409036 2.690994 2.673448 -30.696428 -4.165695 3.462391 14.157584 -1.340616 1.261258 9.513163 0.000000 0.000000 0.000000 8.726280 15.236085 -57.109177 66.466352 -57.772603 39.774867 27.099169 -12.924310 16.380968 0.000000 0.000000 0.000000 -7.125000 0.000000 0.000000 -0.453112 11.711018 -0.359749 0.000000 0.000000 0.000000 -19.957903 6.787479 37.662128 -56.981727 -55.450411 -31.842140 -28.549665 2.236716 28.908025 0.000000 0.000000 0.000000 7.125000 0.000000 0.000000 2.677929 62.115873 -1.115410
-28.428535 15.624099 0.255656 -49.691587 85.636842 -44.101182 0.000000 0.000000 0.000000 -15.430425 5.698321 -10.222227 14.412458 19.222023 73.451111 39.938553 -5.800340 170.047532 0.028997 0.991182 2.725585 0.000000 0.000000 0.000000 27.498541 7.992586 -22.721313 -6.114237 -14.535363 45.433397 -2.300154 6.060148 -27.444064 -0.042923 -1.333692 3.667402 -0.760034 2.290591 20.170463 3.815997 3.440377 4.511505 3.657268 1.829922 -6.656191 2.692859 2.656956 -30.707099 -4.073160 3.416323 14.080298 -1.315268 1.252702 9.482940 0.000000 0.000000 0.000000 8.682227 15.726616 -56.442756 65.297461 -57.542387 38.785945 27.305481 -12.801478 15.878746 0.000000 0.000000 0.000000 -7.125000 0.000000 0.000000 -0.267297 12.231921 -0.210774 0.000000 0.000000 0.000000 -19.744253 5.834575 37.699266 -57.040432 -55.468247 -31.890496 -28.726325 2.509368 28.850912 0.000000 0.000000 0.000000 7.125000 0.000000 0.000000 2.436917 62.101868 -1.014095
-28.326797 15.610642 0.263292 -54.007985 85.378791 -48.396437 0.000000 0.000000 0.000000 -14.847186 5.345796 -11.528402 14.028367 19.122027 72.290727 39.909375 -5.090389 170.311279 0.012754 0.721365 1.982426 0.000000 0.000000 0.000000 28.089118 7.691427 -22.049743 -5.998943 -14.427157 44.977268 -2.329133 6.199970 -27.610402 -0.039440 -1.281406 3.523303 -0.400767 2.293676 20.485129 3.913282 3.531145 4.431905 3.524064 1.872582 -6.903347 2.694725 2.640464 -30.717770 -3.980626 3.370255 14.003012 -1.289921 1.244145 9.452717 0.000000 0.000000 0.000000 8.638174 16.217147 -55.776336 64.128569 -57.312170 37.797022 27.511792 -12.678646 15.376524 0.000000 0.000000 0.000000 -7.125000 0.000000 0.000000 -0.081482 12.752824 -0.061799 0.000000 0.000000 0.000000 -19.530603 4.881672 37.736405 -57.099136 -55.486082 -31.938853 -28.902986 2.782021 28.793800 0.000000 0.000000 0.000000 7.125000 0.000000 0.000000 2.195905 62.087864 -0.912780
-28.199419 15.608715 0.262526 -53.577142 85.075143 -48.107002 0.000000 0.000000 0.000000 -14.559138 5.356595 -12.539291 13.832085 19.059391 71.688520 39.908940 -4.992807 170.413143 0.020670 0.203483 0.558501 0.000000 0.000000 0.000000 28.417664 7.397072 -21.048247 -5.865982 -14.293336 44.434145 -2.357229 6.380184 -27.765257 -0.037796 -1.254018 3.447910 -0.199302 2.370862 20.656867 3.951864 3.684532 4.475300 3.404586 1.944869 -6.946937 2.691028 2.631062 -30.714547 -3.942069 3.349851 13.966812 -1.278873 1.239885 9.437486 0.000000 0.000000 0.000000 8.674764 16.697269 -55.259600 63.185589 -57.086610 37.006987 27.811018 -12.606712 14.783417 0.000000 0.000000 0.000000 -7.125000 0.000000 0.000000 0.176334 13.371798 0.120694 0.000000 0.000000 0.000000 -19.344694 3.868441 37.797463 -57.107826 -55.488686 -31.946004 -29.131189 3.147564 28.742083 0.000000 0.000000 0.000000 7.125000 0.000000 0.000000 1.894351 62.092958 -0.787496
